<?xml version="1.0" encoding="UTF-8" standalone="no"?><!DOCTYPE svg PUBLIC "-//W3C//DTD SVG 1.1//EN" "http://www.w3.org/Graphics/SVG/1.1/DTD/svg11.dtd"><svg width="100%" height="100%" viewBox="0 0 24 24" version="1.1" xmlns="http://www.w3.org/2000/svg" xmlns:xlink="http://www.w3.org/1999/xlink" xml:space="preserve" xmlns:serif="http://www.serif.com/" style="fill-rule:evenodd;clip-rule:evenodd;stroke-linejoin:round;stroke-miterlimit:2;"><path d="M5,18.08l0,0.92l0.92,0l9.06,-9.06l-0.92,-0.92l-9.06,9.06Z" style="fill:#ffd567;fill-opacity:0.3;fill-rule:nonzero;"/><path d="M3,17.25l0,3.75l3.75,0l11.06,-11.06l-3.75,-3.75l-11.06,11.06Zm2.92,1.75l-0.92,0l0,-0.92l9.06,-9.06l0.92,0.92l-9.06,9.06Zm14.79,-13.37l-2.34,-2.34c-0.2,-0.2 -0.45,-0.29 -0.71,-0.29c-0.26,0 -0.51,0.1 -0.7,0.29l-1.83,1.83l3.75,3.75l1.83,-1.83c0.39,-0.39 0.39,-1.02 0,-1.41Z" style="fill:#0a214d;fill-rule:nonzero;"/></svg>