<svg xmlns="http://www.w3.org/2000/svg" viewBox="0 0 1525 294">
  <rect fill="#434B57" width="1525" height="294" rx="54" />
  <path fill="#fff" d="M496 135c3-2 6-4 7-7 2-3 3-6 3-10 0-14-8-21-23-21h-31a7 7 0 0 0-7 7v70c0 2 0 4 2 6l5 2h30c8 0 15-2 20-6 6-4 8-11 8-20 0-6-1-10-4-14-2-3-6-6-10-7Zm-6-14c0 3-1 5-3 6-1 2-4 3-6 3h-21v-19h21l7 2 2 8Zm-8 47h-22v-24h22l9 2c2 2 4 5 4 10 0 4-2 7-4 9s-5 3-9 3ZM572 117c-3 0-4 0-6 2l-2 5v31c0 5-1 9-3 11s-6 4-10 4-8-2-10-4-3-6-3-11v-31l-2-5c-2-2-3-2-5-2-3 0-4 0-6 2l-2 5v31c0 9 3 16 7 21 5 5 12 7 21 7s16-2 21-7c4-5 7-12 7-21v-31l-2-5c-2-2-3-2-5-2ZM643 117c-2 0-4 0-5 2-2 1-2 3-2 5v31c0 5-1 8-4 11-2 2-5 4-10 4-4 0-7-1-9-4-3-2-4-6-4-11v-31c0-2 0-4-2-5-1-2-3-2-5-2s-4 0-5 2c-2 1-2 3-2 5v36l2 12 8 8c3 2 7 3 11 3 9 0 16-3 20-8v1c0 6-1 11-4 13-3 3-7 4-13 4l-5-1-4-1-3-1-3-1-3 2c-2 1-3 2-3 4v2c0 3 2 5 6 7l7 1 8 1c10 0 17-2 23-7s8-13 8-23v-52c0-2 0-4-2-5-1-2-3-2-5-2ZM775 115c-4 0-9 2-12 5-4 2-7 5-9 9-3-9-9-14-19-14-5 0-8 1-12 3l-8 8v-2l-2-5c-2-2-3-2-5-2s-4 0-6 2l-2 5v50l2 6 6 2 5-2 2-6v-31c0-4 1-7 4-10 2-3 6-4 10-4 5 0 8 1 10 4l2 10v31l2 6 6 2 5-2 2-6v-31c0-4 1-7 4-10 2-3 6-4 10-4 5 0 8 1 10 4l2 10v31l2 6 5 2 6-2 2-6v-31c0-8-2-15-5-20s-9-8-17-8ZM871 148a32 32 0 0 0-16-28c-4-3-9-5-15-5-5 0-10 2-15 5-5 2-9 6-12 12-3 5-4 11-4 18 0 6 1 12 4 17s7 9 12 12 11 4 18 4a34 34 0 0 0 20-7c3-2 4-3 4-6l-2-4-4-2-5 1a30 30 0 0 1-6 4l-8 1c-4 0-8-2-12-5-3-2-6-6-7-11h41c2 0 3 0 5-2l2-4Zm-31-19c4 0 7 1 10 3 3 3 5 6 5 9v1h-31c1-9 7-13 16-13ZM970 115l-5 2c-2 2-2 4-2 6a29 29 0 0 0-20-8c-5 0-10 2-15 5-4 3-8 7-10 12-3 5-4 11-4 17 0 7 1 13 4 18a29 29 0 0 0 26 16l11-3c3-1 6-3 8-6l2 6 5 2 5-2c2-2 2-4 2-6v-51c0-2 0-4-2-6l-5-2Zm-25 55c-5 0-9-2-12-6-4-4-5-9-5-15s1-10 5-14c3-4 7-6 12-6 6 0 10 2 13 6 4 4 5 8 5 14s-1 11-5 15c-3 4-7 6-13 6ZM1056 115c-7 0-12 2-17 5s-9 7-11 12c-3 5-4 11-4 17 0 7 1 12 4 17 2 6 6 10 11 13 4 3 10 4 16 4 4 0 8 0 12-2 4-1 7-2 9-4 2-1 3-3 3-5l-1-5-5-2h-3l-2 2-2 1-9 2c-6 0-10-2-14-6-3-4-5-9-5-15s2-11 5-15c4-3 9-5 15-5h4l3 1 2 2 3 1 3 1 4-2 2-5c0-3-2-6-7-8-4-2-9-4-16-4ZM1153 149c0-6-2-12-5-17a32 32 0 0 0-29-17c-6 0-11 2-16 5s-9 7-12 12-5 11-5 17c0 7 2 13 5 18s7 9 12 12 10 4 16 4a31 31 0 0 0 29-16c3-5 5-11 5-18Zm-15 0-2 11-7 7c-3 2-6 3-10 3l-9-3c-3-2-5-4-6-7-2-3-3-7-3-11s1-7 3-10a18 18 0 0 1 15-10 18 18 0 0 1 17 10l2 10ZM1196 105h5l1 1h2l4-2 1-5-3-6-8-1c-8 0-14 2-18 5-4 4-6 9-6 15v6h-7c-2 0-3 0-5 2l-1 5 1 4c2 2 3 2 5 2h7v43l2 6 5 2 5-2 3-6v-43h11c2 0 3 0 4-2 2-1 2-3 2-4 0-2 0-4-2-5-1-2-2-2-4-2h-11v-6l1-5c1-2 3-2 6-2Zm51 0h5l1 1h1l5-2 1-5-3-6-8-1c-8 0-14 2-18 5-4 4-6 9-6 15v6h-7c-2 0-3 0-5 2l-2 5 2 4c2 2 3 2 5 2h7v43c0 2 0 4 2 6l5 2 5-2c2-2 2-4 2-6v-43h11c2 0 4 0 5-2 2-1 2-3 2-4 0-2 0-4-2-5-1-2-3-2-5-2h-11v-6l2-5c1-2 3-2 6-2ZM1325 148a32 32 0 0 0-16-28c-5-3-10-5-15-5s-11 2-15 5c-5 2-9 6-12 12-3 5-4 11-4 18 0 6 1 12 4 17s7 9 12 12 11 4 17 4a34 34 0 0 0 21-7c2-2 4-3 4-6l-2-4-5-2-4 1-2 2-4 2-8 1c-5 0-9-2-12-5-4-2-6-6-7-11h40c2 0 4 0 6-2l2-4Zm-31-19c4 0 7 1 10 3 3 3 5 6 5 9v1h-32c2-9 8-13 17-13ZM1395 148a32 32 0 0 0-15-28c-5-3-10-5-15-5-6 0-11 2-16 5-4 2-8 6-11 12-3 5-5 11-5 18 0 6 2 12 4 17 3 5 7 9 12 12s11 4 18 4a34 34 0 0 0 21-7c2-2 3-3 3-6 0-1 0-3-2-4l-4-2-4 1a30 30 0 0 1-7 4l-8 1c-4 0-8-2-11-5-4-2-6-6-7-11h40c2 0 4 0 5-2 2-1 2-2 2-4Zm-30-19c3 0 7 1 10 3 3 3 4 6 5 9v1h-32c2-9 7-13 17-13ZM346 119c-3-16-11-26-20-33-10-6-21-9-32-9H133c-6 0-8 5-8 8v111c2 22 24 22 24 22h109l5-1c20-5 22-23 22-34 40 2 69-26 61-64Zm-45 37h-15v-52h10c7 0 14 3 18 8 4 4 6 9 6 16 0 18-9 25-19 28Z"/>
  <path fill="#f15e5e" d="M204 189h3l37-37c10-12 11-33-7-40-17-8-32 9-32 9-12-14-32-13-40-4-9 9-6 25 1 34 6 9 33 33 37 37l1 1Z"/>
</svg>
