<svg xmlns="http://www.w3.org/2000/svg" xml:space="preserve" fill-rule="evenodd" stroke-linecap="round" stroke-linejoin="round" stroke-miterlimit="1.5" clip-rule="evenodd" viewBox="0 0 100 100">
  <rect width="100" height="100" fill="#fbefd2"/>
  <circle cx="50" cy="50" r="40" fill="#ffd567"/>
  <path fill="none" stroke="#0a214d" stroke-dasharray="9.26 9.26 4.63 0" stroke-width="4.63" d="M100 0v100H0V0h100ZM50 10.19A39.83 39.83 0 0 1 89.82 50 39.83 39.83 0 0 1 50 89.81 39.83 39.83 0 0 1 10.2 50 39.83 39.83 0 0 1 50 10.19Z"/>
  <path fill="#0a214d" fill-rule="nonzero" d="M36.13 76.1a3.65 3.65 0 0 1-3.6-4.14l2-14.4-9.67-10.4a3.64 3.64 0 0 1 2.04-6.06l13.48-2.41 6.37-12.78a3.64 3.64 0 0 1 6.5 0l6.37 12.78 13.5 2.4a3.64 3.64 0 0 1 2.01 6.06l-9.66 10.4 2 14.4a3.65 3.65 0 0 1-5.29 3.72l-12.18-6.34-12.2 6.37c-.52.26-1.1.4-1.67.4Zm-2.71-29.45 8.1 8.7-1.66 11.81L50 61.88l10.14 5.28-1.66-11.8 8.1-8.7-11.4-2.04L50 34.2l-5.18 10.4-11.4 2.04Z"/>
</svg>
