<svg viewBox="0 0 108 108" xmlns="http://www.w3.org/2000/svg" fill-rule="evenodd" clip-rule="evenodd" stroke-linejoin="round" stroke-miterlimit="2"><path fill="#333" d="M0 0h108v108H0z"/><path d="M6.4 96.5c-.1.5-.4 1-1 1.3-1.3.6-3-.5-2.9-2a2 2 0 0 1 2-1.8c.9 0 1.5.7 1.8 1.5h24.2V108c0 1-1 .5-1 0V96.5H6.4zm0 6c-.1.5-.4 1-1 1.3-1.3.6-3-.5-2.9-2a2 2 0 0 1 2-1.8c.9 0 1.5.7 1.8 1.5h18.2v6.5c0 1-1 .6-1 0v-5.5H6.4zm47.1-9.1c-.9-.3-1.6-1.1-1.5-2.2a2 2 0 0 1 2-1.7c1.8 0 2.9 2.9.8 3.8l-.3.1V108c0 .5-1 .7-1 0V93.4zm-26.1-33c-.1.6-.4 1.2-1.1 1.4-1.3.6-3-.6-2.8-2.1a2 2 0 0 1 2-1.7c.9 0 1.5.7 1.8 1.5h24.2v24.7l-9 9V108c0 .5-1 .7-1 0V92.8l9-9V60.5H27.4zm0 6c-.1.6-.4 1.2-1.1 1.4-1.3.6-3-.6-2.8-2.1a2 2 0 0 1 2-1.7c.9 0 1.5.7 1.8 1.5h18.2v15.7l-9 9V108c0 .5-1 .6-1 0V89.8l9-9V66.5H27.4zm44.2 35a2 2 0 0 1 2-1.4c1.7 0 2.8 2.9.7 3.8-1 .5-2.4-.2-2.7-1.3H60.5v5.5c0 .6-1 .6-1 0v-6.5c4 0 8-.2 12 0zm33-6a2 2 0 0 1 2-1.4c1.7 0 2.8 2.9.7 3.8-1 .5-2.4-.2-2.7-1.3h-2.1v9H84.4c0 .5-.4 1-1 1.3-1.3.6-3-.5-2.9-2a2 2 0 0 1 2-1.8c.9 0 1.6.7 1.8 1.5h17.2v-9h3zM82.5 104c-1 0-1.5 2 0 2 .4 0 .9-.4 1-.8a1 1 0 0 0-1-1.2zm-9-3c-1 0-1.5 2 0 2 .4 0 .9-.4 1-.8a1 1 0 0 0-1-1.2zm-69 0c-1 0-1.5 2 0 2 .4 0 .9-.4 1-.8a1 1 0 0 0-1-1.2zm100-11.5a2 2 0 0 1 2-1.5c1.8 0 2.9 2.9.8 3.8-1 .5-2.4-.2-2.7-1.3h-8.1v9H84.4c0 .5-.4 1-1 1.3-1.3.6-3-.5-2.9-2a2 2 0 0 1 2-1.8c.9 0 1.6.7 1.8 1.5h11.2v-9c3 0 6-.2 9 0zm-22 8.5c-1 0-1.5 2 0 2 .4 0 .9-.4 1-.8a1 1 0 0 0-1-1.2zm-11-2.5a2 2 0 0 1 2-1.5c1.8 0 2.9 2.9.8 3.8-1 .5-2.4-.2-2.7-1.3h-8.2c0 .5-.4 1-1 1.3-1.3.6-3-.5-2.9-2a2 2 0 0 1 2-1.8c.9 0 1.5.7 1.8 1.5h8.3zm-10-.5c-1 0-1.5 2 0 2 .4 0 .9-.4 1-.8a1 1 0 0 0-1-1.2zm12 0c-1 0-1.5 2 0 2 .4 0 .9-.4 1-.8a1 1 0 0 0-1-1.2zm33 0c-1 0-1.5 2 0 2 .4 0 .9-.4 1-.8a1 1 0 0 0-1-1.2zm-102 0c-1 0-1.5 2 0 2 .4 0 .9-.4 1-.8a1 1 0 0 0-1-1.2zm55.9-28.5c-.1.5-.4 1-1.1 1.3-1.3.6-3-.6-2.8-2.1a2 2 0 0 1 2-1.7c.9 0 1.5.7 1.8 1.5h9.2v15h21v9c1.4.6 2.2 3 .3 3.8-1.2.6-3-.5-2.8-2a2 2 0 0 1 1.5-1.7v-8.1h-21v-15h-8.1zm0 6c-.1.5-.4 1-1.1 1.3-1.3.6-3-.6-2.8-2.1a2 2 0 0 1 2-1.7c.9 0 1.5.7 1.8 1.5h3.2v15h21v3c1.4.6 2.2 3 .3 3.8-1.2.6-3-.5-2.8-2a2 2 0 0 1 1.5-1.7v-2.1h-21v-15h-2.1zm-6.4 18c-1 0-1.5 2 0 2 .4 0 .9-.4 1-.8a1 1 0 0 0-1-1.2zm36 0c-1 0-1.5 2 0 2 .4 0 .9-.4 1-.8a1 1 0 0 0-1-1.2zm-6 0c-1 0-1.5 2 0 2 .4 0 .9-.4 1-.8a1 1 0 0 0-1-1.2zm-60.4 0H2.5v-12H0c-.5 0-.7-1 0-1h3.5v12h20a2 2 0 0 1 2-1.5c1.8 0 2.8 3 .8 3.8-1 .5-2.4-.2-2.7-1.3zm82.9-1.5c-1 0-1.5 2 0 2 .4 0 .9-.4 1-.8a1 1 0 0 0-1-1.2zm-81 0c-1 0-1.5 2 0 2 .4 0 .9-.4 1-.8a1 1 0 0 0-1-1.2zm4-4.5h-21v-15H0c-.5 0-.7-1 0-1h9.5v15h20a2 2 0 0 1 2-1.5c1.8 0 2.8 3 .8 3.8-1 .5-2.4-.2-2.7-1.3zm2-1.5c-1 0-1.5 2 0 2 .4 0 .9-.4 1-.8a1 1 0 0 0-1-1.2zm70-2.4V62.5h6.6c.5.1.6 1-.1 1h-5.5v17c1.4.6 2.2 3 .3 3.8-1.2.6-3-.5-2.8-2a2 2 0 0 1 1.5-1.7zm-6 0V56.5c4.2 0 8.4-.3 12.6 0 .5.1.5 1-.1 1H96.5v23c1.4.6 2.2 3 .3 3.8-1.2.6-3-.5-2.8-2a2 2 0 0 1 1.5-1.7zm6.5.9c-1 0-1.5 2 0 2 .4 0 .9-.4 1-.8a1 1 0 0 0-1-1.2zm-6 0c-1 0-1.5 2 0 2 .4 0 .9-.4 1-.8a1 1 0 0 0-1-1.2zm-60.4-3H14.5V66.2l-2.7-2.7H-.1c-.5-.1-.5-1 .1-1h12.2l3.3 3.3v11.7h20a2 2 0 0 1 2-1.5c1.8 0 2.8 3 .8 3.8-1 .5-2.4-.2-2.7-1.3zm1.9-1.5c-1 0-1.5 2 0 2 .4 0 .9-.4 1-.8a1 1 0 0 0-1-1.2zm37-13.6c-.9-.3-1.6-1.2-1.5-2.2a2 2 0 0 1 2-1.7c1.8 0 2.9 3 .8 3.8l-.3.1v11.1h11a2 2 0 0 1 2-1.5c1.8 0 2.9 3 .8 3.8-1 .5-2.4-.2-2.7-1.3H74.5V63.4zm14 10.6c-1 0-1.5 2 0 2 .4 0 .9-.4 1-.8a1 1 0 0 0-1-1.2zm-53-1.5h-15v-9.3l-5.7-5.7H-.1c-.5-.1-.5-1 .1-1h15.2l6.3 6.3v8.7h14a2 2 0 0 1 2-1.5c1.8 0 2.9 3 .8 3.8-1 .5-2.4-.2-2.7-1.3zm23-1.5c-1 0-1.5 2 0 2 .4 0 .9-.4 1-.8a1 1 0 0 0-1-1.2zm-21 0c-1 0-1.5 2 0 2 .4 0 .9-.4 1-.8a1 1 0 0 0-1-1.2zm21-6c-1 0-1.5 2 0 2 .4 0 .9-.4 1-.8a1 1 0 0 0-1-1.2zm-33 0c-1 0-1.5 2 0 2 .4 0 .9-.4 1-.8a1 1 0 0 0-1-1.2zm43-9v-5.5h13v15h5.6c.5.1.6 1-.1 1h-6.5v-15h-11V56c1.4.5 2.2 3 .3 3.8-1.3.5-3-.6-2.8-2.2a2 2 0 0 1 1.5-1.6zm18-1.6c-.9-.3-1.6-1.2-1.5-2.2a2 2 0 0 1 2-1.7c1.8 0 2.9 3 .8 3.8l-.3.1v5.2c1.4.5 2.2 3 .3 3.7-1.3.6-3-.6-2.8-2.1a2 2 0 0 1 1.5-1.6v-5.2zM75 60.5c-1 0-1.5 2 0 2 .4 0 .9-.4 1-.8a1 1 0 0 0-1-1.2zm12 0c-1 0-1.5 2 0 2 .4 0 .9-.4 1-.8a1 1 0 0 0-1-1.2zM25.5 59c-1 0-1.5 2 0 2 .4 0 .9-.4 1-.8a1 1 0 0 0-1-1.2zm58-41.5a2 2 0 0 1 2-1.5c1.8 0 2.9 3 .8 3.8-1 .5-2.4-.2-2.7-1.3H69.5v18h-9v20c1.4.6 2.2 3 .3 3.8-1.3.6-3-.6-2.8-2.1a2 2 0 0 1 1.5-1.6V35.5h9v-18h15zM60 57.5c-1 0-1.5 2 0 2 .4 0 .9-.4 1-.8a1 1 0 0 0-1-1.2zm8.9-.5c-1 .1-1.3 2 0 2 .5 0 1-.4 1-.9.2-.5-.2-1-.7-1.1H69zm18-5.5c-.9 0-1.4 2 0 2 .5 0 1-.4 1-.8a1 1 0 0 0-1-1.2zm12.5 0c-.1.6-.4 1-1.1 1.3-1.3.6-3-.6-2.8-2.1a2 2 0 0 1 2-1.7c.9 0 1.5.7 1.8 1.5 3-.1 5.8-.1 8.7 0 .5 0 .6 1 0 1h-8.6zM53.5 27.4c-.9-.3-1.6-1.1-1.5-2.2a2 2 0 0 1 2-1.7c1.8 0 2.8 3 .8 3.8l-.3.1v24.1H21.4c-.1.5-.4 1-1.1 1.3-1.3.6-3-.6-2.8-2.1a2 2 0 0 1 2-1.7c.9 0 1.5.7 1.8 1.5h32.2V27.4zm44 22.6c-1 0-1.5 2 0 2 .4 0 .9-.4 1-.8a1 1 0 0 0-1-1.2zm-78 0c-1 0-1.5 2 0 2 .4 0 .9-.4 1-.8a1 1 0 0 0-1-1.2zm-8-2.5a2 2 0 0 1 2-1.5c1.8 0 2.9 3 .8 3.8-1 .5-2.4-.2-2.7-1.3-3.9.2-7.7 0-11.6 0-.5 0-.7-1 0-1 3.8-.2 7.7-.2 11.6 0zm2-.5c-1 0-1.5 2 0 2 .4 0 .9-.4 1-.8a1 1 0 0 0-1-1.2zm73.9-1.5c-.1.5-.4 1-1.1 1.3-1.3.6-3-.6-2.8-2.1a2 2 0 0 1 2-1.7c.9 0 1.5.7 1.8 1.5 7 0 13.9-.4 20.8 0 .5.1.6 1-.1 1H87.4zm17.2-13a2 2 0 0 1 2-1.5c1.7 0 2.7 3 .7 3.8-1 .5-2.4-.2-2.7-1.3H78.5v12H66.4c-.1.5-.4 1-1.1 1.3-1.3.6-3-.6-2.8-2.1a2 2 0 0 1 2-1.7c.9 0 1.5.7 1.8 1.5h11.2v-12h27zM64.5 44c-1 0-1.5 2 0 2 .4 0 .9-.4 1-.8a1 1 0 0 0-1-1.2zm21 0c-1 0-1.5 2 0 2 .4 0 .9-.4 1-.8a1 1 0 0 0-1-1.2zm-53-2.4V24.5h-12V0c0-.4.1-.5.6-.5.3.1.4.2.4.5v23.5h12v18c1.4.6 2.2 3 .3 3.8-1.3.6-3-.6-2.8-2.1a2 2 0 0 1 1.5-1.6zM9.4.5c-.1.5-.4 1-1.1 1.3-1.3.6-3-.6-2.8-2.1a2 2 0 0 1 2-1.7c.9 0 1.5.7 1.8 1.5h6.2v27h12v15c1.4.6 2.2 3 .3 3.8-1.3.6-3-.6-2.8-2.1a2 2 0 0 1 1.5-1.6V27.5h-12V.5H9.4zm29.1 41v-23h-9V0c0-.4.1-.5.6-.5.3.1.4.2.4.5v17.5h9v24c1.4.6 2.2 3 .3 3.8-1.3.6-3-.6-2.8-2.1a2 2 0 0 1 1.5-1.6zm6-26.1c-.9-.3-1.6-1.2-1.5-2.2a2 2 0 0 1 2-1.7c1.8 0 2.9 3 .8 3.8l-.3.1v26.2c1.4.5 2.2 3 .3 3.7-1.3.6-3-.6-2.8-2.1a2 2 0 0 1 1.5-1.6V15.4zm-35.1-9C9.3 7 9 7.7 8.3 7.9c-1.3.6-3-.6-2.8-2.1a2 2 0 0 1 2-1.7c.9 0 1.5.7 1.8 1.5h3.2v24h9v12c1.4.6 2.2 3 .3 3.8-1.3.6-3-.6-2.8-2.1a2 2 0 0 1 1.5-1.6V30.5h-9v-24H9.4zM39 42.6c-1 0-1.5 2 0 2 .4 0 .9-.4 1-.8a1 1 0 0 0-1-1.2zm6 0c-1 0-1.5 2 0 2 .4 0 .9-.4 1-.8a1 1 0 0 0-1-1.2zm-24 0c-1 0-1.5 2 0 2 .4 0 .9-.4 1-.8a1 1 0 0 0-1-1.2zm6 0c-1 0-1.5 2 0 2 .4 0 .9-.4 1-.8a1 1 0 0 0-1-1.2zm6 0c-1 0-1.5 2 0 2 .4 0 .9-.4 1-.8a1 1 0 0 0-1-1.2zm-21.4-1a2 2 0 0 1 2-1.5c1.7 0 2.8 3 .7 3.8-1 .5-2.4-.2-2.7-1.3-3.9.2-7.7 0-11.6 0-.5 0-.6-1 0-1 3.8-.2 7.7-.2 11.6 0zm1.9-.5c-1 0-1.5 2 0 2 .4 0 .9-.4 1-.8a1 1 0 0 0-1-1.2zm73.9-1.5c-.1.5-.4 1-1.1 1.3-1.3.6-3-.6-2.8-2.1a2 2 0 0 1 2-1.7c.9 0 1.5.7 1.8 1.5 7 0 13.9-.4 20.8 0 .5.1.6 1-.1 1H87.4zm-2-1.5c-.9 0-1.4 2 0 2 .5 0 1-.4 1-.8a1 1 0 0 0-1-1.2zM5.6 15.4c-.9-.3-1.6-1.2-1.5-2.2a2 2 0 0 1 2-1.7c1.8 0 2.9 3 .8 3.8l-.3.1v20.1h5a2 2 0 0 1 2-1.5c1.8 0 2.8 3 .8 3.8-1 .5-2.4-.2-2.7-1.3H5.5V15.4zm8 19.6c-1 0-1.5 2 0 2 .4 0 .9-.4 1-.8a1 1 0 0 0-1-1.2zm93-3c-1 0-1.5 2 0 2 1 0 1.2-2 0-2zM54 24.5c-1 0-1.5 2 0 2 .4 0 .9-.4 1-.8a1 1 0 0 0-1-1.2zm21.4 0c-.1.5-.4 1-1 1.3-1.3.6-3-.5-2.9-2a2 2 0 0 1 2-1.8c.9 0 1.5.7 1.8 1.5h26.3a2 2 0 0 1 2-1.5c1.7 0 2.7 3 .7 3.8-1 .5-2.4-.2-2.7-1.3H75.4zm-2-1.5c-.9 0-1.4 2 0 2 .5 0 1-.4 1-.8a1 1 0 0 0-1-1.2zm30 0c-.9 0-1.4 2 0 2 .5 0 1-.4 1-.8a1 1 0 0 0-1-1.2zm-49.1-5.5h5.2v-8h-6V-.1c0-.4.2-.4.6-.4.2 0 .4.2.4.5v8.5h6v10h-6.1c-.1.5-.4 1-1.1 1.3-1.3.6-3-.6-2.8-2.1a2 2 0 0 1 2-1.7c.9 0 1.5.7 1.8 1.5zm-1.8-.5c-1 0-1.5 2 0 2 .4 0 .9-.4 1-.8a1 1 0 0 0-1-1.2zm33 0c-1 0-1.5 2 0 2 .4 0 .9-.4 1-.8a1 1 0 0 0-1-1.2zm7-7.6c-.9-.3-1.6-1.2-1.5-2.2a2 2 0 0 1 2-1.7c1.8 0 2.9 3 .8 3.8l-.3.1v8.1h14.6c.5.2.5 1-.1 1H92.5V9.4zM45 12.5c-1 0-1.5 2 0 2 .4 0 .9-.4 1-.8a1 1 0 0 0-1-1.2zm-39 0c-1 0-1.5 2 0 2 .4 0 .9-.4 1-.8a1 1 0 0 0-1-1.2zm72.4-9c-.1.5-.4 1-1.1 1.3-1.3.6-3-.6-2.8-2.1a2 2 0 0 1 2-1.7c.9 0 1.5.7 1.8 1.5h21.2v9h8.6c.5.1.5 1-.1 1h-9.5v-9H78.4zm5.2 6H65.5V-.1c0-.2 0-.5.6-.4.4.1.4.3.4.5v8.5h17a2 2 0 0 1 2-1.5c1.8 0 2.9 2.9.8 3.8-1 .5-2.4-.2-2.7-1.3zM85.5 8c-1 0-1.5 2 0 2 .4 0 .9-.4 1-.8a1 1 0 0 0-1-1.2zm-47-2.4v-.1V0c0-.3.2-.5.5-.5s.5.2.5.5a84.6 84.6 0 0 1 0 5.6c1.4.4 2.2 3 .3 3.7-1.3.6-3-.6-2.8-2.1a2 2 0 0 1 1.5-1.6zm6 0v-.1V0c0-.3.2-.5.5-.5s.5.2.5.5a84.6 84.6 0 0 1 0 5.6c1.4.5 2.2 3 .3 3.7-1.3.6-3-.6-2.8-2.1a2 2 0 0 1 1.5-1.6zm-5.5.9c-1 0-1.5 2 0 2 .4 0 .9-.4 1-.8a1 1 0 0 0-1-1.2zm6 0c-1 0-1.5 2 0 2 .4 0 .9-.4 1-.8a1 1 0 0 0-1-1.2zm48 0c-1 0-1.5 2 0 2 .4 0 .9-.4 1-.8a1 1 0 0 0-1-1.2zM7.5 5c-1 0-1.5 2 0 2 .4 0 .9-.4 1-.8a1 1 0 0 0-1-1.2zm69-3c-1 0-1.5 2 0 2 .4 0 .9-.4 1-.8a1 1 0 0 0-1-1.2zm-69-3c-1 0-1.5 2 0 2 .4 0 .9-.4 1-.8a1 1 0 0 0-1-1.2z"/><path d="M49.8 91.7c-.7-.5-.8-.9-.2-.9.3 0 .7-.1 1-.3.6-.4.9-1 4-7.7a2570.2 2570.2 0 0 1 20-43.3c.2-.6.5-.6 1 0 .7.7.5 1-3 8.7-3.3 7-6.6 13.9-9.7 20.9l-6.3 13.5a42.8 42.8 0 0 1-4.7 9.1c-.6.5-1.5.5-2 0zm-2.5-2.5l-.8-.9c-.2-.6-.4.3 4.3-18.7l2-8.3c.6-2.8 1.2-5.1 1-5.2 0 0-3.2.6-7 1.7L39 59.5c-.6-.2-1.5-.9-1.3-1.1l16.5-4.1c.2-.2.3-.4.4-.9v-.7l-8.9 2a98.2 98.2 0 0 1-9.3 2.2c-.6-.1-1.5-1-1.5-1.4l8.6-36c.1-.4.4-.8.7-1.1l.6-.4h7.6c6.4 0 7.6 0 8 .2.6.3 1 .8 1 1.4l-2 5.7L54.1 40c0 .4 1.7 0 1.9-.4l6.2-17c.7-2 .9-2.3 1.5-1.5.2.3.4.6.4 1L62.4 27c-1.6 4-3 8-4.4 12 0 .2 0 .2.2.2l6.7-1.6c4.7-1.1 6.7-1.6 7-1.5.8.2 1.5 1 1.5 1.7 0 .4-1 2.6-3.4 7.8l-9.7 20.8L54 80a39.8 39.8 0 0 1-4.7 9.2c-.6.4-1.4.4-2 0z" fill="#7dc36b" fill-rule="nonzero"/></svg>
