<?xml version="1.0" encoding="UTF-8" standalone="no"?>
<!DOCTYPE svg PUBLIC "-//W3C//DTD SVG 1.1//EN" "http://www.w3.org/Graphics/SVG/1.1/DTD/svg11.dtd">
<svg width="100%" height="100%" viewBox="0 0 108 108" version="1.1" xmlns="http://www.w3.org/2000/svg" xmlns:xlink="http://www.w3.org/1999/xlink" xml:space="preserve" xmlns:serif="http://www.serif.com/" style="fill-rule:evenodd;clip-rule:evenodd;stroke-linejoin:round;stroke-miterlimit:2;">
    <g transform="matrix(2.17777,0,0,0.825399,0,0)">
        <rect x="0" y="0" width="49.592" height="130.846" style="fill:rgb(51,51,51);"/>
    </g>
    <path d="M6.39,96.495C6.301,97.034 5.973,97.529 5.323,97.823C4.063,98.393 2.322,97.274 2.516,95.746C2.64,94.77 3.543,93.988 4.551,94.001C5.375,94.032 6.05,94.707 6.306,95.5L30.5,95.5L30.5,108C30.434,108.972 29.536,108.528 29.5,108L29.5,96.5L6.39,96.495ZM6.39,102.497C6.301,103.035 5.972,103.529 5.323,103.823C4.063,104.393 2.322,103.274 2.516,101.746C2.64,100.77 3.543,99.988 4.551,100.001C5.375,100.032 6.05,100.707 6.306,101.5L24.5,101.5L24.5,108C24.447,108.908 23.532,108.554 23.5,108L23.5,102.5L6.39,102.497ZM53.5,93.38C52.622,93.106 51.886,92.268 52.016,91.246C52.14,90.271 53.044,89.488 54.051,89.501C55.757,89.565 56.856,92.403 54.823,93.323C54.718,93.37 54.61,93.406 54.5,93.431L54.5,108C54.47,108.549 53.539,108.727 53.5,108L53.5,93.38ZM27.392,60.492C27.303,61.045 26.962,61.553 26.279,61.843C25.003,62.382 23.292,61.208 23.523,59.696C23.669,58.741 24.562,57.988 25.551,58.001C26.373,58.032 27.049,58.707 27.305,59.5L51.5,59.5L51.5,84.207L42.5,93.207L42.5,108C42.449,108.547 41.562,108.666 41.5,108L41.5,92.793L50.5,83.793L50.5,60.5L27.392,60.492ZM27.392,66.493C27.303,67.046 26.961,67.554 26.279,67.843C25.003,68.382 23.292,67.208 23.523,65.696C23.669,64.741 24.562,63.988 25.551,64.001C26.373,64.032 27.049,64.707 27.305,65.5L45.5,65.5L45.5,81.207L36.5,90.207L36.5,108C36.452,108.549 35.555,108.629 35.5,108L35.5,89.793L44.5,80.793L44.5,66.5L27.392,66.493ZM71.57,101.481C71.808,100.633 72.637,99.989 73.551,100.001C75.257,100.065 76.356,102.903 74.323,103.823C73.283,104.294 71.913,103.612 71.578,102.5L60.5,102.5L60.498,108.048C60.422,108.575 59.527,108.557 59.5,108L59.5,101.5C63.523,101.5 67.551,101.318 71.57,101.481ZM104.57,95.481C104.808,94.632 105.636,93.989 106.551,94.001C108.257,94.065 109.356,96.904 107.323,97.823C106.283,98.294 104.913,97.612 104.578,96.5L102.5,96.5L102.5,105.5L84.396,105.5C84.305,106.035 83.975,106.528 83.323,106.823C82.063,107.393 80.322,106.274 80.516,104.746C80.64,103.77 81.543,102.988 82.551,103.001C83.373,103.032 84.054,103.706 84.311,104.5L101.5,104.5L101.5,95.5C102.523,95.5 103.548,95.448 104.57,95.481ZM82.474,104C81.526,104.036 81.033,105.963 82.474,106C82.946,106.012 83.4,105.648 83.484,105.177C83.59,104.586 83.09,103.993 82.474,104ZM73.474,101C72.526,101.036 72.033,102.963 73.474,103C73.946,103.012 74.4,102.648 74.484,102.177C74.59,101.586 74.09,100.993 73.474,101ZM4.474,101C3.526,101.036 3.033,102.963 4.474,103C4.946,103.012 5.4,102.647 5.484,102.177C5.59,101.586 5.09,100.993 4.474,101ZM104.571,89.476C104.811,88.63 105.638,87.989 106.551,88.001C108.257,88.065 109.356,90.904 107.323,91.823C106.283,92.294 104.913,91.612 104.578,90.5L96.5,90.5L96.5,99.5L84.396,99.5C84.305,100.035 83.975,100.528 83.323,100.823C82.063,101.393 80.322,100.274 80.516,98.746C80.64,97.77 81.543,96.988 82.551,97.001C83.373,97.032 84.054,97.706 84.311,98.5L95.5,98.5L95.5,89.5C98.523,89.5 101.553,89.323 104.571,89.476ZM82.474,98C81.526,98.036 81.033,99.963 82.474,100C82.946,100.012 83.4,99.648 83.484,99.177C83.59,98.586 83.09,97.993 82.474,98ZM71.569,95.483C71.807,94.634 72.636,93.989 73.551,94.001C75.257,94.065 76.356,96.903 74.323,97.823C73.287,98.292 71.926,97.619 71.582,96.515C68.856,96.606 66.125,96.51 63.396,96.501C63.305,97.036 62.975,97.528 62.323,97.823C61.063,98.393 59.322,97.274 59.516,95.746C59.64,94.771 60.544,93.988 61.551,94.001C62.369,94.032 63.047,94.699 63.307,95.488C66.059,95.383 68.817,95.381 71.569,95.483ZM61.474,95C60.526,95.036 60.033,96.963 61.474,97C61.946,97.012 62.4,96.648 62.484,96.177C62.59,95.586 62.09,94.993 61.474,95ZM73.474,95C72.526,95.036 72.033,96.963 73.474,97C73.946,97.012 74.4,96.648 74.484,96.177C74.59,95.586 74.09,94.993 73.474,95ZM106.474,95C105.526,95.036 105.033,96.963 106.474,97C106.946,97.012 107.4,96.648 107.484,96.177C107.59,95.586 107.09,94.993 106.474,95ZM4.474,95C3.526,95.036 3.033,96.963 4.474,97C4.946,97.012 5.4,96.647 5.484,96.177C5.59,95.586 5.09,94.993 4.474,95ZM60.392,66.495C60.302,67.047 59.961,67.554 59.279,67.843C58.003,68.382 56.292,67.208 56.523,65.696C56.669,64.741 57.562,63.988 58.551,64.001C59.373,64.032 60.049,64.707 60.305,65.5L69.5,65.5L69.5,80.5L90.5,80.5L90.5,89.584C91.931,90.066 92.671,92.487 90.823,93.323C89.563,93.893 87.822,92.774 88.016,91.246C88.117,90.453 88.732,89.788 89.5,89.573L89.5,81.5L68.5,81.5L68.5,66.5L60.392,66.495ZM60.392,72.496C60.301,73.048 59.96,73.554 59.279,73.843C58.003,74.382 56.292,73.208 56.523,71.696C56.669,70.741 57.562,69.988 58.551,70.001C59.373,70.032 60.049,70.707 60.305,71.5L63.5,71.5L63.5,86.5L84.5,86.5L84.5,89.584C85.931,90.066 86.671,92.487 84.823,93.323C83.563,93.893 81.822,92.774 82.016,91.246C82.117,90.453 82.732,89.788 83.5,89.573L83.5,87.5L62.5,87.5L62.5,72.5L60.392,72.496ZM53.974,90.5C53.026,90.536 52.533,92.463 53.974,92.5C54.446,92.512 54.9,92.148 54.984,91.677C55.09,91.086 54.59,90.493 53.974,90.5ZM89.974,90.5C89.026,90.536 88.533,92.463 89.974,92.5C90.446,92.512 90.9,92.148 90.984,91.677C91.09,91.086 90.59,90.493 89.974,90.5ZM83.974,90.5C83.026,90.536 82.533,92.463 83.974,92.5C84.446,92.512 84.9,92.148 84.984,91.677C85.09,91.086 84.59,90.493 83.974,90.5ZM23.578,90.5L2.5,90.5L2.5,78.5L0,78.5C-0.545,78.463 -0.745,77.551 0,77.5L3.5,77.5L3.5,89.5L23.563,89.505C23.793,88.644 24.628,87.989 25.551,88.001C27.261,88.066 28.337,90.912 26.323,91.823C25.283,92.294 23.913,91.612 23.578,90.5ZM106.474,89C105.526,89.036 105.033,90.963 106.474,91C106.946,91.012 107.4,90.648 107.484,90.177C107.59,89.586 107.09,88.993 106.474,89ZM25.474,89C24.526,89.036 24.033,90.963 25.474,91C25.946,91.012 26.4,90.647 26.484,90.177C26.59,89.586 26.09,88.993 25.474,89ZM29.578,84.5L8.5,84.5L8.5,69.5L0,69.5C-0.545,69.459 -0.654,68.549 0,68.5L9.5,68.5L9.5,83.5L29.563,83.505C29.792,82.645 30.627,81.989 31.551,82.001C33.261,82.066 34.337,84.912 32.323,85.823C31.283,86.294 29.913,85.612 29.578,84.5ZM31.474,83C30.526,83.036 30.033,84.963 31.474,85C31.946,85.012 32.4,84.647 32.484,84.177C32.59,83.586 32.09,82.993 31.474,83ZM101.5,80.573L101.5,62.5C103.686,62.5 105.876,62.376 108.058,62.503C108.591,62.597 108.677,63.461 108,63.5L102.5,63.5L102.497,80.583C103.93,81.062 104.672,83.487 102.823,84.323C101.563,84.893 99.822,83.774 100.016,82.246C100.117,81.453 100.732,80.788 101.5,80.573ZM95.5,80.573L95.5,56.5C99.689,56.5 103.888,56.219 108.068,56.505C108.581,56.611 108.582,57.46 108,57.5L96.5,57.5L96.495,80.582C97.93,81.061 98.673,83.486 96.823,84.323C95.563,84.893 93.822,83.774 94.016,82.246C94.117,81.453 94.732,80.788 95.5,80.573ZM101.974,81.5C101.026,81.536 100.533,83.463 101.974,83.5C102.446,83.512 102.9,83.148 102.984,82.677C103.09,82.086 102.59,81.493 101.974,81.5ZM95.974,81.5C95.026,81.536 94.533,83.463 95.974,83.5C96.446,83.512 96.9,83.148 96.984,82.677C97.09,82.086 96.59,81.493 95.974,81.5ZM35.578,78.5L14.5,78.5L14.5,66.207L11.793,63.5L-0.082,63.493C-0.595,63.363 -0.596,62.549 0,62.5L12.207,62.5C13.305,63.598 14.402,64.695 15.5,65.793L15.5,77.5L35.565,77.5C35.796,76.642 36.629,75.989 37.551,76.001C39.263,76.066 40.337,78.912 38.323,79.823C37.283,80.294 35.913,79.612 35.578,78.5ZM37.474,77C36.525,77.036 36.033,78.963 37.474,79C37.946,79.012 38.4,78.647 38.484,78.177C38.59,77.586 38.09,76.993 37.474,77ZM74.502,63.381C73.609,63.099 72.866,62.226 73.023,61.196C73.169,60.241 74.062,59.488 75.051,59.501C76.775,59.566 77.855,62.464 75.779,63.343C75.688,63.381 75.594,63.411 75.5,63.432L75.5,74.5L86.564,74.502C86.792,73.641 87.63,72.989 88.551,73.001C90.275,73.066 91.354,75.964 89.279,76.843C88.242,77.281 86.917,76.587 86.582,75.5L74.5,75.5L74.502,63.381ZM88.474,74C87.523,74.037 87.033,75.963 88.474,76C88.946,76.012 89.4,75.648 89.484,75.177C89.59,74.586 89.09,73.993 88.474,74ZM35.582,72.5L20.5,72.5L20.5,63.207L14.793,57.5L-0.082,57.493C-0.585,57.366 -0.584,56.548 0,56.5L15.207,56.5C17.305,58.598 19.402,60.695 21.5,62.793L21.5,71.5L35.564,71.5C35.794,70.64 36.631,69.989 37.551,70.001C39.275,70.066 40.355,72.964 38.279,73.843C37.241,74.281 35.917,73.587 35.582,72.5ZM58.474,71C57.525,71.036 57.033,72.963 58.474,73C58.946,73.012 59.4,72.648 59.484,72.177C59.59,71.586 59.09,70.993 58.474,71ZM37.474,71C36.525,71.036 36.033,72.963 37.474,73C37.946,73.012 38.4,72.648 38.484,72.177C38.59,71.586 38.09,70.993 37.474,71ZM58.474,65C57.525,65.036 57.033,66.963 58.474,67C58.946,67.012 59.4,66.648 59.484,66.177C59.59,65.586 59.09,64.993 58.474,65ZM25.474,65C24.525,65.036 24.033,66.963 25.474,67C25.946,67.012 26.4,66.648 26.484,66.177C26.59,65.586 26.09,64.993 25.474,65ZM68.5,56.026L68.5,50.5L81.5,50.5L81.5,65.5L87.058,65.503C87.591,65.597 87.677,66.461 87,66.5L80.5,66.5L80.5,51.5L69.5,51.5L69.497,56.035C70.943,56.521 71.669,58.995 69.779,59.795C68.503,60.335 66.792,59.16 67.023,57.648C67.141,56.876 67.749,56.235 68.5,56.026ZM86.488,54.376C85.601,54.09 84.866,53.22 85.023,52.196C85.169,51.241 86.063,50.488 87.051,50.501C88.775,50.566 89.854,53.464 87.779,54.343C87.692,54.379 87.603,54.408 87.513,54.429C87.563,56.148 87.563,57.869 87.513,59.588C88.948,60.087 89.662,62.545 87.779,63.343C86.503,63.882 84.792,62.708 85.023,61.196C85.141,60.428 85.741,59.791 86.487,59.577C86.436,57.844 86.437,56.109 86.488,54.376ZM74.974,60.5C74.025,60.536 73.533,62.463 74.974,62.5C75.446,62.512 75.9,62.148 75.984,61.677C76.09,61.086 75.59,60.493 74.974,60.5ZM86.974,60.5C86.023,60.537 85.533,62.463 86.974,62.5C87.446,62.512 87.9,62.148 87.984,61.677C88.09,61.086 87.59,60.493 86.974,60.5ZM25.474,59C24.525,59.036 24.033,60.963 25.474,61C25.946,61.012 26.4,60.648 26.484,60.177C26.59,59.586 26.09,58.993 25.474,59ZM83.564,17.5C83.794,16.64 84.631,15.989 85.551,16.001C87.275,16.066 88.354,18.964 86.279,19.843C85.242,20.281 83.917,19.587 83.582,18.5L69.5,18.5L69.5,36.5L60.5,36.5L60.493,56.581C61.941,57.064 62.671,59.542 60.779,60.343C59.503,60.882 57.792,59.708 58.023,58.196C58.141,57.423 58.749,56.783 59.5,56.573L59.5,35.5L68.5,35.5L68.5,17.5L83.564,17.5ZM59.974,57.5C59.025,57.536 58.533,59.463 59.974,59.5C60.446,59.512 60.9,59.148 60.984,58.677C61.09,58.086 60.59,57.493 59.974,57.5ZM68.857,56.967C67.988,57.147 67.593,58.917 68.974,58.952C69.446,58.964 69.9,58.6 69.984,58.13C70.076,57.619 69.715,57.107 69.218,56.982C69.105,57.037 68.975,57.024 68.857,56.967ZM86.974,51.5C86.023,51.537 85.533,53.463 86.974,53.5C87.446,53.512 87.9,53.148 87.984,52.677C88.09,52.086 87.59,51.493 86.974,51.5ZM99.391,51.501C99.3,52.051 98.958,52.555 98.279,52.843C97.003,53.382 95.292,52.208 95.523,50.696C95.669,49.741 96.563,48.988 97.551,49.001C98.369,49.032 99.042,49.7 99.301,50.488C102.213,50.377 105.131,50.381 108.041,50.502C108.54,50.564 108.633,51.424 108.041,51.498C105.16,51.617 102.275,51.51 99.391,51.501ZM53.506,27.382C52.625,27.11 51.886,26.27 52.016,25.246C52.14,24.27 53.043,23.488 54.051,23.501C55.763,23.566 56.837,26.412 54.823,27.323C54.718,27.37 54.61,27.406 54.5,27.431L54.5,51.5L21.392,51.494C21.302,52.047 20.961,52.554 20.279,52.843C19.003,53.382 17.292,52.208 17.523,50.696C17.669,49.741 18.562,48.988 19.551,49.001C20.373,49.032 21.049,49.707 21.305,50.5L53.5,50.5L53.506,27.382ZM97.474,50C96.523,50.037 96.033,51.963 97.474,52C97.946,52.012 98.4,51.648 98.484,51.177C98.59,50.586 98.09,49.993 97.474,50ZM19.474,50C18.525,50.036 18.033,51.963 19.474,52C19.946,52.012 20.4,51.648 20.484,51.177C20.59,50.586 20.09,49.993 19.474,50ZM11.569,47.48C11.807,46.63 12.638,45.989 13.551,46.001C15.275,46.066 16.354,48.964 14.279,49.843C13.247,50.279 11.931,49.595 11.587,48.518C7.729,48.675 3.862,48.5 0,48.5C-0.516,48.475 -0.663,47.591 -0.048,47.502C3.82,47.318 7.701,47.311 11.569,47.48ZM13.474,47C12.525,47.036 12.033,48.963 13.474,49C13.946,49.012 14.4,48.648 14.484,48.177C14.59,47.586 14.09,46.993 13.474,47ZM87.391,45.5C87.3,46.05 86.958,46.555 86.279,46.843C85.003,47.382 83.292,46.208 83.523,44.696C83.669,43.741 84.563,42.988 85.551,43.001C86.373,43.032 87.048,43.707 87.305,44.5C94.225,44.488 101.157,44.069 108.063,44.504C108.601,44.607 108.669,45.458 108,45.5L87.391,45.5ZM104.565,32.5C104.796,31.642 105.629,30.989 106.551,31.001C108.263,31.066 109.337,33.912 107.323,34.823C106.283,35.294 104.913,34.612 104.578,33.5L78.5,33.5L78.5,45.5L66.391,45.5C66.3,46.05 65.958,46.555 65.279,46.843C64.003,47.382 62.292,46.208 62.523,44.696C62.669,43.741 63.562,42.988 64.551,43.001C65.373,43.032 66.049,43.707 66.305,44.5L77.5,44.5L77.5,32.5L104.565,32.5ZM64.474,44C63.525,44.036 63.033,45.963 64.474,46C64.946,46.012 65.4,45.648 65.484,45.177C65.59,44.586 65.09,43.993 64.474,44ZM85.474,44C84.523,44.037 84.033,45.963 85.474,46C85.946,46.012 86.4,45.648 86.484,45.177C86.59,44.586 86.09,43.993 85.474,44ZM32.5,41.573L32.5,24.5L20.5,24.5L20.5,0C20.538,-0.434 20.648,-0.531 21.087,-0.492C21.447,-0.396 21.471,-0.331 21.5,0L21.5,23.5L33.5,23.5L33.5,41.584C34.944,42.072 35.667,44.543 33.779,45.343C32.503,45.882 30.792,44.708 31.023,43.196C31.141,42.423 31.749,41.783 32.5,41.573ZM9.392,0.493C9.303,1.046 8.961,1.554 8.279,1.843C7.003,2.382 5.292,1.208 5.523,-0.304C5.669,-1.259 6.562,-2.012 7.551,-1.999C8.373,-1.968 9.049,-1.293 9.305,-0.5L15.5,-0.5L15.5,26.5L27.5,26.5L27.5,41.584C28.944,42.072 29.667,44.543 27.779,45.343C26.503,45.882 24.792,44.708 25.023,43.196C25.141,42.423 25.749,41.783 26.5,41.573L26.5,27.5L14.5,27.5L14.5,0.5L9.392,0.493ZM38.5,41.573L38.5,18.5L29.5,18.5L29.5,0C29.538,-0.434 29.648,-0.531 30.087,-0.492C30.447,-0.396 30.471,-0.331 30.5,0L30.5,17.5L39.5,17.5L39.5,41.584C40.944,42.072 41.667,44.543 39.779,45.343C38.503,45.882 36.792,44.708 37.023,43.196C37.141,42.423 37.749,41.783 38.5,41.573ZM44.5,15.38C43.608,15.097 42.866,14.225 43.023,13.196C43.169,12.241 44.062,11.488 45.051,11.501C46.775,11.566 47.855,14.464 45.779,15.343C45.688,15.381 45.594,15.411 45.5,15.432L45.5,41.584C46.944,42.072 47.667,44.543 45.779,45.343C44.503,45.882 42.792,44.708 43.023,43.196C43.141,42.423 43.749,41.783 44.5,41.573L44.5,15.38ZM9.392,6.494C9.302,7.047 8.961,7.554 8.279,7.843C7.003,8.382 5.292,7.208 5.523,5.696C5.669,4.741 6.562,3.988 7.551,4.001C8.373,4.032 9.049,4.707 9.305,5.5L12.5,5.5L12.5,29.5L21.5,29.5L21.5,41.584C22.944,42.072 23.667,44.543 21.779,45.343C20.503,45.882 18.792,44.708 19.023,43.196C19.141,42.423 19.749,41.783 20.5,41.573L20.5,30.5L11.5,30.5L11.5,6.5L9.392,6.494ZM38.974,42.5C38.025,42.536 37.533,44.463 38.974,44.5C39.446,44.512 39.9,44.148 39.984,43.677C40.09,43.086 39.59,42.493 38.974,42.5ZM44.974,42.5C44.025,42.536 43.533,44.463 44.974,44.5C45.446,44.512 45.9,44.148 45.984,43.677C46.09,43.086 45.59,42.493 44.974,42.5ZM20.974,42.5C20.025,42.536 19.533,44.463 20.974,44.5C21.446,44.512 21.9,44.148 21.984,43.677C22.09,43.086 21.59,42.493 20.974,42.5ZM26.974,42.5C26.025,42.536 25.533,44.463 26.974,44.5C27.446,44.512 27.9,44.148 27.984,43.677C28.09,43.086 27.59,42.493 26.974,42.5ZM32.974,42.5C32.025,42.536 31.533,44.463 32.974,44.5C33.446,44.512 33.9,44.148 33.984,43.677C34.09,43.086 33.59,42.493 32.974,42.5ZM11.569,41.48C11.807,40.63 12.638,39.989 13.551,40.001C15.275,40.066 16.354,42.964 14.279,43.843C13.247,44.279 11.931,43.595 11.587,42.518C7.729,42.675 3.862,42.5 0,42.5C-0.535,42.475 -0.636,41.587 -0.048,41.502C3.82,41.318 7.701,41.311 11.569,41.48ZM13.474,41C12.525,41.036 12.033,42.963 13.474,43C13.946,43.012 14.4,42.648 14.484,42.177C14.59,41.586 14.09,40.993 13.474,41ZM87.391,39.5C87.3,40.05 86.958,40.555 86.279,40.843C85.003,41.382 83.292,40.208 83.523,38.696C83.669,37.741 84.562,36.988 85.551,37.001C86.373,37.032 87.048,37.707 87.305,38.5C94.225,38.488 101.157,38.069 108.063,38.504C108.601,38.607 108.669,39.458 108,39.5L87.391,39.5ZM85.474,38C84.526,38.036 84.033,39.963 85.474,40C85.946,40.012 86.4,39.648 86.484,39.177C86.59,38.586 86.09,37.993 85.474,38ZM5.504,15.381C4.61,15.1 3.865,14.226 4.023,13.196C4.169,12.241 5.062,11.488 6.051,11.501C7.775,11.566 8.855,14.464 6.779,15.343C6.688,15.381 6.594,15.411 6.5,15.432L6.5,35.5L11.564,35.504C11.793,34.644 12.628,33.989 13.551,34.001C15.263,34.066 16.337,36.912 14.323,37.823C13.283,38.294 11.913,37.612 11.578,36.5L5.5,36.5L5.504,15.381ZM13.474,35C12.526,35.036 12.033,36.963 13.474,37C13.946,37.012 14.4,36.648 14.484,36.177C14.59,35.586 14.09,34.993 13.474,35ZM106.474,32C105.52,32.037 105.023,34.038 106.526,34C107.531,33.974 107.7,31.985 106.474,32ZM53.974,24.5C53.026,24.536 52.533,26.463 53.974,26.5C54.446,26.512 54.9,26.148 54.984,25.677C55.09,25.086 54.59,24.493 53.974,24.5ZM75.39,24.5C75.299,25.037 74.971,25.53 74.323,25.823C73.063,26.393 71.322,25.274 71.516,23.746C71.64,22.77 72.543,21.988 73.551,22.001C74.375,22.032 75.05,22.707 75.306,23.5L101.565,23.5C101.796,22.642 102.629,21.989 103.551,22.001C105.263,22.066 106.337,24.912 104.323,25.823C103.283,26.294 101.913,25.612 101.578,24.5L75.39,24.5ZM73.474,23C72.526,23.036 72.033,24.963 73.474,25C73.946,25.012 74.4,24.648 74.484,24.177C74.59,23.586 74.09,22.993 73.474,23ZM103.474,23C102.526,23.036 102.033,24.963 103.474,25C103.946,25.012 104.4,24.648 104.484,24.177C104.59,23.586 104.09,22.993 103.474,23ZM54.305,17.5L59.5,17.5L59.5,9.5L53.5,9.5L53.503,-0.058C53.583,-0.51 53.741,-0.533 54.087,-0.492C54.33,-0.435 54.481,-0.322 54.5,0L54.5,8.5L60.5,8.5L60.5,18.5L54.392,18.497C54.301,19.049 53.96,19.554 53.279,19.843C52.003,20.382 50.292,19.208 50.523,17.696C50.669,16.741 51.562,15.988 52.551,16.001C53.373,16.032 54.049,16.707 54.305,17.5ZM52.474,17C51.526,17.036 51.033,18.963 52.474,19C52.946,19.012 53.4,18.648 53.484,18.177C53.59,17.586 53.09,16.993 52.474,17ZM85.474,17C84.526,17.036 84.033,18.963 85.474,19C85.946,19.012 86.4,18.648 86.484,18.177C86.59,17.586 86.09,16.993 85.474,17ZM92.503,9.381C91.609,9.099 90.865,8.226 91.023,7.196C91.169,6.241 92.062,5.488 93.051,5.501C94.775,5.566 95.854,8.464 93.779,9.343C93.688,9.381 93.594,9.411 93.5,9.432L93.5,17.5L108,17.5C108.054,17.503 108.054,17.503 108.107,17.512C108.61,17.651 108.559,18.47 108,18.5L92.5,18.5L92.503,9.381ZM44.974,12.5C44.026,12.536 43.533,14.463 44.974,14.5C45.446,14.512 45.9,14.148 45.984,13.677C46.09,13.086 45.59,12.493 44.974,12.5ZM5.974,12.5C5.026,12.536 4.533,14.463 5.974,14.5C6.446,14.512 6.9,14.148 6.984,13.677C7.09,13.086 6.59,12.493 5.974,12.5ZM78.391,3.5C78.3,4.05 77.958,4.555 77.279,4.843C76.003,5.382 74.292,4.208 74.523,2.696C74.669,1.741 75.562,0.988 76.551,1.001C77.373,1.032 78.049,1.707 78.305,2.5L99.5,2.5L99.5,11.5L108.075,11.506C108.589,11.623 108.565,12.458 108,12.5L98.5,12.5L98.5,3.5L78.391,3.5ZM83.578,9.5L65.5,9.5L65.503,-0.058C65.552,-0.335 65.576,-0.552 66.087,-0.492C66.459,-0.404 66.489,-0.189 66.5,0L66.5,8.5L83.564,8.503C83.793,7.644 84.628,6.989 85.551,7.001C87.257,7.066 88.356,9.904 86.323,10.823C85.283,11.294 83.913,10.612 83.578,9.5ZM85.474,8C84.526,8.036 84.033,9.963 85.474,10C85.946,10.012 86.4,9.648 86.484,9.177C86.59,8.586 86.09,7.993 85.474,8ZM38.515,5.569C38.509,5.543 38.504,5.516 38.501,5.486C38.441,3.648 38.441,1.806 38.501,-0.033C38.528,-0.304 38.681,-0.51 39.033,-0.499C39.279,-0.475 39.474,-0.283 39.499,-0.033C39.559,1.806 39.559,3.648 39.499,5.486C39.496,5.518 39.489,5.549 39.48,5.577C40.937,6.049 41.676,8.539 39.779,9.343C38.503,9.882 36.792,8.708 37.023,7.196C37.142,6.418 37.757,5.774 38.515,5.569ZM44.516,5.569C44.509,5.543 44.504,5.516 44.501,5.486C44.441,3.648 44.441,1.806 44.501,-0.033C44.528,-0.304 44.681,-0.51 45.033,-0.499C45.281,-0.474 45.475,-0.28 45.499,-0.033C45.559,1.806 45.559,3.648 45.499,5.486C45.496,5.519 45.489,5.549 45.48,5.577C46.937,6.05 47.676,8.539 45.779,9.343C44.503,9.882 42.792,8.708 43.023,7.196C43.142,6.418 43.757,5.774 44.516,5.569ZM38.974,6.5C38.026,6.536 37.533,8.463 38.974,8.5C39.446,8.512 39.9,8.148 39.984,7.677C40.09,7.086 39.59,6.493 38.974,6.5ZM44.974,6.5C44.026,6.536 43.533,8.463 44.974,8.5C45.446,8.512 45.9,8.148 45.984,7.677C46.09,7.086 45.59,6.493 44.974,6.5ZM92.974,6.5C92.026,6.536 91.533,8.463 92.974,8.5C93.446,8.512 93.9,8.148 93.984,7.677C94.09,7.086 93.59,6.493 92.974,6.5ZM7.474,5C6.526,5.036 6.033,6.963 7.474,7C7.946,7.012 8.4,6.648 8.484,6.177C8.59,5.586 8.09,4.993 7.474,5ZM76.474,2C75.526,2.036 75.033,3.963 76.474,4C76.946,4.012 77.4,3.648 77.484,3.177C77.59,2.586 77.09,1.993 76.474,2ZM7.474,-1C6.526,-0.964 6.033,0.963 7.474,1C7.946,1.012 8.4,0.648 8.484,0.177C8.59,-0.414 8.09,-1.007 7.474,-1Z"/>
    <g transform="matrix(0.159838,0,0,0.159838,13.3915,12.8246)">
        <path d="M227.849,493.485C223.315,490.462 222.937,487.817 226.716,487.817C228.227,487.817 230.872,487.061 232.762,485.928C236.54,483.661 238.43,479.504 258.078,437.562C282.597,384.022 307.411,330.617 332.517,277.349C349.379,240.38 366.383,203.475 383.528,166.636C384.283,163.235 385.795,163.235 388.818,166.636C393.352,171.17 392.596,173.06 369.925,221.426C349.503,264.754 329.35,308.209 309.467,351.787L270.17,436.428C249.01,481.771 244.097,491.596 241.075,493.485C237.133,496.316 231.791,496.316 227.849,493.485ZM211.979,477.993C210.468,476.859 208.201,474.214 207.445,472.325C205.934,468.546 204.8,473.836 233.895,355.188L246.365,303.044C250.521,285.662 253.922,271.303 253.166,270.925C252.788,270.548 232.762,274.704 208.579,281.128C177.594,288.685 163.235,292.086 160.968,291.708C157.19,290.952 151.522,286.418 152.655,284.906C187.183,276.922 221.573,268.356 255.811,259.212C256.945,258.456 258.078,256.945 258.456,253.922L258.456,249.387C258.456,249.01 233.139,254.677 202.911,262.235C161.346,272.815 147.365,275.838 144.72,275.838C140.942,275.082 134.896,269.414 134.896,266.769C153.183,192.019 171.194,117.203 188.93,42.32C189.657,39.407 191.236,36.776 193.464,34.763L197.243,32.118L244.475,32.118C284.528,32.118 292.463,32.118 294.731,33.63C298.509,35.519 300.776,38.542 300.776,42.32C300.776,43.832 295.486,59.702 288.685,77.839C277.349,108.823 266.013,139.808 254.677,170.793C254.677,173.438 265.258,170.793 266.391,168.148L305.311,62.347C309.845,49.122 310.979,47.61 314.757,52.523C315.891,54.034 317.024,56.301 317.024,58.19C317.024,59.702 312.112,73.683 306.444,89.175C296.808,114.202 287.612,139.397 278.861,164.747C278.861,165.503 279.616,165.88 280.372,165.88L322.314,155.678C351.787,148.499 363.879,145.854 366.146,146.232C371.058,147.365 375.215,152.277 375.215,156.812C375.215,159.457 369.169,173.06 354.055,205.556C333.633,248.884 313.48,292.339 293.597,335.917L253.922,420.18C233.139,465.523 228.227,475.348 224.827,477.615C220.966,480.27 215.84,480.27 211.979,477.615L211.979,477.993Z" style="fill:rgb(125,195,107);fill-rule:nonzero;"/>
    </g>
</svg>
